<svg width="48" height="48" viewBox="0 0 48 48" fill="none" xmlns="http://www.w3.org/2000/svg">
<path fill-rule="evenodd" clip-rule="evenodd" d="M6.928 6.928C4 9.86 4 14.572 4 24C4 33.428 4 38.142 6.928 41.07C9.86 44 14.572 44 24 44C33.428 44 38.142 44 41.07 41.07C44 38.144 44 33.428 44 24C44 14.572 44 9.858 41.07 6.928C38.144 4 33.428 4 24 4C14.572 4 9.858 4 6.928 6.928ZM14.5 24C14.5 21.4804 15.5009 19.0641 17.2825 17.2825C19.0641 15.5009 21.4804 14.5 24 14.5C26.5196 14.5 28.9359 15.5009 30.7175 17.2825C32.4991 19.0641 33.5 21.4804 33.5 24C33.5 26.5196 32.4991 28.9359 30.7175 30.7175C28.9359 32.4991 26.5196 33.5 24 33.5C21.4804 33.5 19.0641 32.4991 17.2825 30.7175C15.5009 28.9359 14.5 26.5196 14.5 24ZM17.5 24C17.5 22.2761 18.1848 20.6228 19.4038 19.4038C20.6228 18.1848 22.2761 17.5 24 17.5C25.7239 17.5 27.3772 18.1848 28.5962 19.4038C29.8152 20.6228 30.5 22.2761 30.5 24C30.5 25.7239 29.8152 27.3772 28.5962 28.5962C27.3772 29.8152 25.7239 30.5 24 30.5C22.2761 30.5 20.6228 29.8152 19.4038 28.5962C18.1848 27.3772 17.5 25.7239 17.5 24Z" fill="black"/>
</svg>
