<svg width="24" height="24" viewBox="0 0 24 24" fill="none" xmlns="http://www.w3.org/2000/svg">
<g opacity="0.2">
<path fill-rule="evenodd" clip-rule="evenodd" d="M3.464 3.464C2 4.93 2 7.286 2 12C2 16.714 2 19.071 3.464 20.535C4.93 22 7.286 22 12 22C16.714 22 19.071 22 20.535 20.535C22 19.072 22 16.714 22 12C22 7.286 22 4.929 20.535 3.464C19.072 2 16.714 2 12 2C7.286 2 4.929 2 3.464 3.464ZM6.75 11.25H10C10.1989 11.25 10.3897 11.329 10.5303 11.4697C10.671 11.6103 10.75 11.8011 10.75 12C10.75 12.1989 10.671 12.3897 10.5303 12.5303C10.3897 12.671 10.1989 12.75 10 12.75H6.75V16C6.75 16.1989 6.67098 16.3897 6.53033 16.5303C6.38968 16.671 6.19891 16.75 6 16.75C5.80109 16.75 5.61032 16.671 5.46967 16.5303C5.32902 16.3897 5.25 16.1989 5.25 16V8C5.25 7.80109 5.32902 7.61032 5.46967 7.46967C5.61032 7.32902 5.80109 7.25 6 7.25H10C10.1989 7.25 10.3897 7.32902 10.5303 7.46967C10.671 7.61032 10.75 7.80109 10.75 8C10.75 8.19891 10.671 8.38968 10.5303 8.53033C10.3897 8.67098 10.1989 8.75 10 8.75H6.75V11.25ZM11.55 7.4C11.6288 7.34091 11.7185 7.29791 11.8139 7.27346C11.9093 7.24902 12.0086 7.24361 12.1061 7.25754C12.2036 7.27147 12.2974 7.30446 12.3821 7.35464C12.4669 7.40483 12.5409 7.47121 12.6 7.55L15 10.75L17.4 7.55C17.4591 7.47121 17.5331 7.40483 17.6179 7.35464C17.7026 7.30446 17.7964 7.27147 17.8939 7.25754C17.9914 7.24361 18.0907 7.24902 18.1861 7.27346C18.2815 7.29791 18.3712 7.34091 18.45 7.4C18.5288 7.45909 18.5952 7.53313 18.6454 7.61788C18.6955 7.70263 18.7285 7.79643 18.7425 7.89393C18.7564 7.99144 18.751 8.09073 18.7265 8.18614C18.7021 8.28155 18.6591 8.37121 18.6 8.45L15.937 12L18.6 15.55C18.6591 15.6288 18.7021 15.7185 18.7265 15.8139C18.751 15.9093 18.7564 16.0086 18.7425 16.1061C18.7285 16.2036 18.6955 16.2974 18.6454 16.3821C18.5952 16.4669 18.5288 16.5409 18.45 16.6C18.3712 16.6591 18.2815 16.7021 18.1861 16.7265C18.0907 16.751 17.9914 16.7564 17.8939 16.7425C17.7964 16.7285 17.7026 16.6955 17.6179 16.6454C17.5331 16.5952 17.4591 16.5288 17.4 16.45L15 13.25L12.6 16.45C12.5409 16.5288 12.4669 16.5952 12.3821 16.6454C12.2974 16.6955 12.2036 16.7285 12.1061 16.7425C12.0086 16.7564 11.9093 16.751 11.8139 16.7265C11.7185 16.7021 11.6288 16.6591 11.55 16.6C11.4712 16.5409 11.4048 16.4669 11.3546 16.3821C11.3045 16.2974 11.2715 16.2036 11.2575 16.1061C11.2436 16.0086 11.249 15.9093 11.2735 15.8139C11.2979 15.7185 11.3409 15.6288 11.4 15.55L14.062 12L11.4 8.45C11.2807 8.29087 11.2294 8.09085 11.2575 7.89393C11.2857 7.69702 11.3909 7.51935 11.55 7.4Z" fill="black"/>
</g>
</svg>
