<svg width="24" height="24" viewBox="0 0 24 24" fill="none" xmlns="http://www.w3.org/2000/svg">
<g opacity="0.2">
<path fill-rule="evenodd" clip-rule="evenodd" d="M16.5 21.839L16.462 21.847H16.458C16.4427 21.8517 16.427 21.855 16.411 21.857L16.409 21.858L16.459 21.848L16.5 21.839Z" fill="black"/>
<path d="M22 15C21.416 15 20.924 15 20.5 15.008C19.572 15.024 18.972 15.077 18.455 15.245C17.7046 15.4888 17.0226 15.9068 16.4647 16.4647C15.9068 17.0226 15.4888 17.7046 15.245 18.455C15.077 18.972 15.025 19.572 15.008 20.5C15 20.924 15 21.416 15 22C15.4833 21.9993 15.9533 21.952 16.41 21.858L16.458 21.848H16.462L16.5 21.838C17.8065 21.5504 19.0035 20.895 19.9495 19.9492C20.8956 19.0033 21.5512 17.8065 21.839 16.5C21.9457 16.016 21.9993 15.516 22 15Z" fill="black"/>
<path fill-rule="evenodd" clip-rule="evenodd" d="M2 12C2 16.714 2 19.071 3.464 20.535C4.93 22 7.286 22 12 22H13.5V21.74C13.499 20.133 13.498 18.975 13.818 17.991C13.8873 17.779 13.967 17.5713 14.057 17.368C13.4008 17.6212 12.7034 17.7507 12 17.75C10.7575 17.7488 9.54853 17.3465 8.553 16.603C8.39307 16.4844 8.28679 16.3072 8.25754 16.1103C8.22828 15.9134 8.27845 15.7129 8.397 15.553C8.51555 15.3931 8.69278 15.2868 8.88969 15.2575C9.0866 15.2283 9.28707 15.2784 9.447 15.397C10.175 15.937 11.054 16.25 12 16.25C12.946 16.25 13.825 15.937 14.553 15.398C14.6785 15.3048 14.8301 15.2531 14.9864 15.2502C15.1428 15.2474 15.2961 15.2934 15.425 15.382C16.1464 14.6674 17.0252 14.1317 17.991 13.818C18.975 13.498 20.133 13.499 21.741 13.5H22V12C22 7.286 22 4.929 20.535 3.464C19.072 2 16.714 2 12 2C7.286 2 4.929 2 3.464 3.464C2 4.93 2 7.286 2 12ZM15 12C15.552 12 16 11.328 16 10.5C16 9.672 15.552 9 15 9C14.448 9 14 9.672 14 10.5C14 11.328 14.448 12 15 12ZM9 12C9.552 12 10 11.328 10 10.5C10 9.672 9.552 9 9 9C8.448 9 8 9.672 8 10.5C8 11.328 8.448 12 9 12Z" fill="black"/>
</g>
</svg>
