<svg width="48" height="48" viewBox="0 0 48 48" fill="none" xmlns="http://www.w3.org/2000/svg">
<path d="M38.704 15.234L30.784 8.10798C28.53 6.07798 27.404 5.06198 26.018 4.53198L26 9.99998C26 14.714 26 17.072 27.464 18.536C28.928 20 31.286 20 36 20H43.16C42.436 18.592 41.136 17.424 38.704 15.234Z" fill="black"/>
<path fill-rule="evenodd" clip-rule="evenodd" d="M20 44H28C35.542 44 39.314 44 41.656 41.656C43.998 39.312 44 35.542 44 28V27.126C44 25.38 44 24.068 43.914 23H35.81C33.616 23 31.676 23 30.114 22.79C28.42 22.562 26.726 22.04 25.344 20.658C23.96 19.274 23.438 17.58 23.21 15.886C23 14.324 23 12.386 23 10.19L23.02 4.522C23.02 4.35667 23.0333 4.194 23.06 4.034C22.242 4 21.272 4 20.06 4C12.478 4 8.686 4 6.344 6.344C4 8.686 4 12.458 4 20V28C4 35.542 4 39.314 6.344 41.656C8.688 43.998 12.458 44 20 44ZM15.974 38.094C16.252 38.3547 16.6189 38.4998 17 38.4998C17.3811 38.4998 17.748 38.3547 18.026 38.094L22.026 34.344C22.3094 34.0703 22.4737 33.696 22.4834 33.3022C22.4932 32.9083 22.3475 32.5264 22.078 32.239C21.8085 31.9516 21.4367 31.7818 21.043 31.7663C20.6493 31.7507 20.2653 31.8907 19.974 32.156L18.5 33.536V27C18.5 26.6022 18.342 26.2206 18.0607 25.9393C17.7794 25.658 17.3978 25.5 17 25.5C16.6022 25.5 16.2206 25.658 15.9393 25.9393C15.658 26.2206 15.5 26.6022 15.5 27V33.538L14.026 32.156C13.7347 31.8907 13.3507 31.7507 12.957 31.7663C12.5633 31.7818 12.1915 31.9516 11.922 32.239C11.6525 32.5264 11.5068 32.9083 11.5166 33.3022C11.5263 33.696 11.6906 34.0703 11.974 34.344L15.974 38.094Z" fill="black"/>
</svg>
