<svg width="24" height="24" viewBox="0 0 24 24" fill="none" xmlns="http://www.w3.org/2000/svg">
<g opacity="0.2">
<path d="M22 12.698C21.998 14.168 21.987 15.416 21.904 16.441C21.807 17.631 21.608 18.625 21.164 19.45C20.97 19.8116 20.724 20.1428 20.434 20.433C19.601 21.266 18.541 21.643 17.197 21.823C15.884 22 14.2 22 12.053 22H11.947C9.799 22 8.117 22 6.803 21.823C5.46 21.643 4.399 21.266 3.567 20.433C2.829 19.695 2.447 18.777 2.245 17.638C2.045 16.518 2.009 15.126 2.002 13.397C2 12.957 1.99933 12.4913 2 12V11.946C2 9.798 2 8.116 2.177 6.802C2.357 5.459 2.734 4.398 3.567 3.566C4.4 2.734 5.46 2.356 6.803 2.176C7.971 2.019 9.473 2.001 11.302 1.999C11.4871 1.999 11.6647 2.07254 11.7956 2.20344C11.9265 2.33434 12 2.51188 12 2.697C12 2.88212 11.9265 3.05966 11.7956 3.19056C11.6647 3.32146 11.4871 3.395 11.302 3.395C9.447 3.397 8.068 3.413 6.989 3.558C5.8 3.718 5.083 4.022 4.553 4.552C4.023 5.082 3.72 5.8 3.56 6.99C3.397 8.2 3.395 9.788 3.395 12V12.784L4.327 11.97C4.73553 11.6126 5.26462 11.4237 5.80714 11.4417C6.34967 11.4598 6.86507 11.6833 7.249 12.067L11.239 16.057C11.5486 16.3667 11.9575 16.5573 12.3938 16.5952C12.83 16.6331 13.2657 16.5158 13.624 16.264L13.902 16.069C14.4188 15.7058 15.0435 15.5287 15.674 15.5666C16.3046 15.6046 16.9035 15.8554 17.373 16.278L20.006 18.648C20.271 18.091 20.429 17.36 20.513 16.328C20.592 15.356 20.603 14.176 20.604 12.698C20.604 12.5129 20.6775 12.3353 20.8084 12.2044C20.9393 12.0735 21.1169 12 21.302 12C21.4871 12 21.6647 12.0735 21.7956 12.2044C21.9265 12.3353 22 12.5129 22 12.698Z" fill="black"/>
<path fill-rule="evenodd" clip-rule="evenodd" d="M17.5 11C15.379 11 14.318 11 13.659 10.341C13 9.682 13 8.621 13 6.5C13 4.379 13 3.318 13.659 2.659C14.318 2 15.379 2 17.5 2C19.621 2 20.682 2 21.341 2.659C22 3.318 22 4.379 22 6.5C22 8.621 22 9.682 21.341 10.341C20.682 11 19.621 11 17.5 11ZM18.25 4.5C18.25 4.30109 18.171 4.11032 18.0303 3.96967C17.8897 3.82902 17.6989 3.75 17.5 3.75C17.3011 3.75 17.1103 3.82902 16.9697 3.96967C16.829 4.11032 16.75 4.30109 16.75 4.5V5.75H15.5C15.3011 5.75 15.1103 5.82902 14.9697 5.96967C14.829 6.11032 14.75 6.30109 14.75 6.5C14.75 6.69891 14.829 6.88968 14.9697 7.03033C15.1103 7.17098 15.3011 7.25 15.5 7.25H16.75V8.5C16.75 8.69891 16.829 8.88968 16.9697 9.03033C17.1103 9.17098 17.3011 9.25 17.5 9.25C17.6989 9.25 17.8897 9.17098 18.0303 9.03033C18.171 8.88968 18.25 8.69891 18.25 8.5V7.25H19.5C19.6989 7.25 19.8897 7.17098 20.0303 7.03033C20.171 6.88968 20.25 6.69891 20.25 6.5C20.25 6.30109 20.171 6.11032 20.0303 5.96967C19.8897 5.82902 19.6989 5.75 19.5 5.75H18.25V4.5Z" fill="black"/>
</g>
</svg>
